<svg width="120" height="87" viewBox="0 0 120 87" fill="none" xmlns="http://www.w3.org/2000/svg">
<path d="M13.44 46.64C11.136 46.64 9.024 46.064 7.104 44.912C5.22667 43.7173 3.712 42.16 2.56 40.24C1.45067 38.2773 0.896004 36.1227 0.896004 33.776V30.832C0.896004 30.6187 1.00267 30.512 1.216 30.512H8.384C8.55467 30.512 8.64 30.6187 8.64 30.832V33.776C8.64 35.184 9.10934 36.4 10.048 37.424C10.9867 38.4053 12.1173 38.896 13.44 38.896C14.7627 38.896 15.8933 38.384 16.832 37.36C17.7707 36.336 18.24 35.1413 18.24 33.776C18.24 32.1973 17.216 30.832 15.168 29.68C14.4853 29.296 13.4187 28.6987 11.968 27.888C10.5173 27.0773 9.152 26.3093 7.872 25.584C5.52534 24.2187 3.776 22.512 2.624 20.464C1.51467 18.3733 0.960004 16.0267 0.960004 13.424C0.960004 11.0347 1.536 8.90133 2.688 7.024C3.84 5.104 5.35467 3.58933 7.232 2.48C9.152 1.37067 11.2213 0.815998 13.44 0.815998C15.7013 0.815998 17.7707 1.392 19.648 2.544C21.568 3.65333 23.0827 5.168 24.192 7.088C25.344 8.96533 25.92 11.0773 25.92 13.424V18.672C25.92 18.8427 25.8347 18.928 25.664 18.928H18.496C18.3253 18.928 18.24 18.8427 18.24 18.672L18.176 13.424C18.176 11.9307 17.7067 10.7147 16.768 9.776C15.8293 8.83733 14.72 8.368 13.44 8.368C12.1173 8.368 10.9867 8.88 10.048 9.904C9.10934 10.8853 8.64 12.0587 8.64 13.424C8.64 14.832 8.93867 16.0053 9.536 16.944C10.1333 17.8827 11.2213 18.7787 12.8 19.632C13.0133 19.76 13.4187 19.9947 14.016 20.336C14.656 20.6347 15.3387 20.9973 16.064 21.424C16.7893 21.808 17.4293 22.1493 17.984 22.448C18.5813 22.7467 18.944 22.9387 19.072 23.024C21.2053 24.2187 22.8907 25.6907 24.128 27.44C25.3653 29.1467 25.984 31.2587 25.984 33.776C25.984 36.208 25.408 38.4053 24.256 40.368C23.1467 42.288 21.632 43.824 19.712 44.976C17.8347 46.0853 15.744 46.64 13.44 46.64Z" fill="#212121"/>
<path d="M42.211 46.64C39.9497 46.64 37.859 46.064 35.939 44.912C34.019 43.7173 32.483 42.1387 31.331 40.176C30.2217 38.2133 29.667 36.0587 29.667 33.712L29.795 1.712C29.795 1.54133 29.8803 1.456 30.051 1.456H37.219C37.3897 1.456 37.475 1.54133 37.475 1.712V33.712C37.475 35.1627 37.923 36.4 38.819 37.424C39.7577 38.4053 40.8883 38.896 42.211 38.896C43.5763 38.896 44.707 38.4053 45.603 37.424C46.5417 36.4 47.011 35.1627 47.011 33.712V1.712C47.011 1.54133 47.0963 1.456 47.267 1.456H54.435C54.6057 1.456 54.691 1.54133 54.691 1.712L54.819 33.712C54.819 36.1013 54.243 38.2773 53.091 40.24C51.9817 42.2027 50.467 43.76 48.547 44.912C46.6697 46.064 44.5577 46.64 42.211 46.64Z" fill="#212121"/>
<path d="M70.7525 46.64C68.4485 46.64 66.3365 46.064 64.4165 44.912C62.5392 43.7173 61.0245 42.16 59.8725 40.24C58.7632 38.2773 58.2085 36.1227 58.2085 33.776V30.832C58.2085 30.6187 58.3152 30.512 58.5285 30.512H65.6965C65.8672 30.512 65.9525 30.6187 65.9525 30.832V33.776C65.9525 35.184 66.4218 36.4 67.3605 37.424C68.2992 38.4053 69.4298 38.896 70.7525 38.896C72.0752 38.896 73.2058 38.384 74.1445 37.36C75.0832 36.336 75.5525 35.1413 75.5525 33.776C75.5525 32.1973 74.5285 30.832 72.4805 29.68C71.7978 29.296 70.7312 28.6987 69.2805 27.888C67.8298 27.0773 66.4645 26.3093 65.1845 25.584C62.8378 24.2187 61.0885 22.512 59.9365 20.464C58.8272 18.3733 58.2725 16.0267 58.2725 13.424C58.2725 11.0347 58.8485 8.90133 60.0005 7.024C61.1525 5.104 62.6672 3.58933 64.5445 2.48C66.4645 1.37067 68.5338 0.815998 70.7525 0.815998C73.0138 0.815998 75.0832 1.392 76.9605 2.544C78.8805 3.65333 80.3952 5.168 81.5045 7.088C82.6565 8.96533 83.2325 11.0773 83.2325 13.424V18.672C83.2325 18.8427 83.1472 18.928 82.9765 18.928H75.8085C75.6378 18.928 75.5525 18.8427 75.5525 18.672L75.4885 13.424C75.4885 11.9307 75.0192 10.7147 74.0805 9.776C73.1418 8.83733 72.0325 8.368 70.7525 8.368C69.4298 8.368 68.2992 8.88 67.3605 9.904C66.4218 10.8853 65.9525 12.0587 65.9525 13.424C65.9525 14.832 66.2512 16.0053 66.8485 16.944C67.4458 17.8827 68.5338 18.7787 70.1125 19.632C70.3258 19.76 70.7312 19.9947 71.3285 20.336C71.9685 20.6347 72.6512 20.9973 73.3765 21.424C74.1018 21.808 74.7418 22.1493 75.2965 22.448C75.8938 22.7467 76.2565 22.9387 76.3845 23.024C78.5178 24.2187 80.2032 25.6907 81.4405 27.44C82.6778 29.1467 83.2965 31.2587 83.2965 33.776C83.2965 36.208 82.7205 38.4053 81.5685 40.368C80.4592 42.288 78.9445 43.824 77.0245 44.976C75.1472 46.0853 73.0565 46.64 70.7525 46.64Z" fill="#212121"/>
<path d="M99.5875 46.64C97.2835 46.64 95.1715 46.064 93.2515 44.912C91.3742 43.7173 89.8595 42.16 88.7075 40.24C87.5555 38.2773 86.9795 36.1227 86.9795 33.776L87.0435 13.488C87.0435 11.1413 87.5982 9.008 88.7075 7.088C89.8595 5.168 91.3955 3.632 93.3155 2.48C95.2355 1.328 97.3262 0.751999 99.5875 0.751999C101.892 0.751999 103.982 1.328 105.86 2.48C107.737 3.632 109.23 5.168 110.34 7.088C111.492 9.008 112.068 11.1413 112.068 13.488L112.132 33.776C112.132 36.1227 111.556 38.2773 110.404 40.24C109.294 42.16 107.78 43.7173 105.86 44.912C103.982 46.064 101.892 46.64 99.5875 46.64ZM99.5875 38.896C100.868 38.896 101.977 38.384 102.916 37.36C103.897 36.2933 104.388 35.0987 104.388 33.776L104.324 13.488C104.324 12.08 103.876 10.8853 102.98 9.904C102.084 8.92267 100.953 8.432 99.5875 8.432C98.2648 8.432 97.1342 8.92267 96.1955 9.904C95.2568 10.8427 94.7875 12.0373 94.7875 13.488V33.776C94.7875 35.184 95.2568 36.4 96.1955 37.424C97.1342 38.4053 98.2648 38.896 99.5875 38.896Z" fill="#212121"/>
<path d="M20.272 86.64C17.968 86.64 15.8773 86.064 14 84.912C12.1227 83.76 10.608 82.224 9.456 80.304C8.34667 78.3413 7.792 76.1653 7.792 73.776V53.488C7.792 51.184 8.34667 49.072 9.456 47.152C10.608 45.1893 12.1227 43.632 14 42.48C15.92 41.328 18.0107 40.752 20.272 40.752C22.6187 40.752 24.7307 41.328 26.608 42.48C28.528 43.5893 30.0427 45.104 31.152 47.024C32.2613 48.944 32.816 51.0987 32.816 53.488V56.432C32.816 56.6027 32.7093 56.688 32.496 56.688H25.328C25.1573 56.688 25.072 56.6027 25.072 56.432V54C25.072 52.3787 24.6027 51.0347 23.664 49.968C22.768 48.9013 21.6373 48.368 20.272 48.368C19.0347 48.368 17.9253 48.88 16.944 49.904C16.0053 50.928 15.536 52.1227 15.536 53.488V73.776C15.536 75.184 16.0053 76.4 16.944 77.424C17.8827 78.4053 18.992 78.896 20.272 78.896C21.6373 78.896 22.768 78.4053 23.664 77.424C24.6027 76.4427 25.072 75.2267 25.072 73.776V70.64H20.592C20.3787 70.64 20.272 70.5333 20.272 70.32V63.152C20.272 62.9387 20.3787 62.832 20.592 62.832H32.56C32.7307 62.832 32.816 62.9387 32.816 63.152V73.776C32.816 76.1653 32.24 78.3413 31.088 80.304C29.9787 82.224 28.4853 83.76 26.608 84.912C24.7307 86.064 22.6187 86.64 20.272 86.64Z" fill="#212121"/>
<path d="M34.0715 85.68L42.0075 41.712C42.0502 41.5413 42.1568 41.456 42.3275 41.456H51.6075C51.7782 41.456 51.8848 41.5413 51.9275 41.712L59.5435 85.68C59.5862 85.8933 59.5008 86 59.2875 86H52.1835C52.0128 86 51.9062 85.8933 51.8635 85.68L51.1595 81.008H42.4555L41.7515 85.68C41.7088 85.8933 41.6022 86 41.4315 86H34.3275C34.1568 86 34.0715 85.8933 34.0715 85.68ZM43.7355 74.16H49.8795L47.2555 56.176L46.8715 53.808L46.6155 56.176L43.7355 74.16Z" fill="#212121"/>
<path d="M63.816 86C63.6453 86 63.56 85.8933 63.56 85.68L63.688 41.712C63.688 41.5413 63.7733 41.456 63.944 41.456H76.872C79.176 41.456 81.288 42.032 83.208 43.184C85.1707 44.2933 86.728 45.808 87.88 47.728C89.032 49.6053 89.608 51.7387 89.608 54.128C89.608 55.7067 89.3733 57.136 88.904 58.416C88.4347 59.6533 87.88 60.72 87.24 61.616C86.6 62.4693 86.024 63.1093 85.512 63.536C87.816 66.096 88.968 69.104 88.968 72.56L89.032 85.68C89.032 85.8933 88.9253 86 88.712 86H81.48C81.3093 86 81.224 85.936 81.224 85.808V72.56C81.224 71.024 80.6693 69.7013 79.56 68.592C78.4933 67.44 77.1707 66.864 75.592 66.864H71.368L71.304 85.68C71.304 85.8933 71.2187 86 71.048 86H63.816ZM71.368 59.184H76.872C78.1947 59.184 79.368 58.6933 80.392 57.712C81.416 56.7307 81.928 55.536 81.928 54.128C81.928 52.7627 81.416 51.5893 80.392 50.608C79.4107 49.6267 78.2373 49.136 76.872 49.136H71.368V59.184Z" fill="#212121"/>
<path d="M94.755 86C94.5417 86 94.435 85.8933 94.435 85.68L94.563 41.712C94.563 41.5413 94.6483 41.456 94.819 41.456H107.107C111.032 41.456 114.126 42.6507 116.387 45.04C118.691 47.4293 119.843 50.672 119.843 54.768C119.843 57.7973 119.246 60.4213 118.051 62.64C116.856 64.8587 115.299 66.5653 113.379 67.76C111.459 68.9547 109.368 69.552 107.107 69.552H102.243V85.68C102.243 85.8933 102.136 86 101.923 86H94.755ZM102.243 61.808H107.107C108.472 61.808 109.646 61.168 110.627 59.888C111.651 58.5653 112.163 56.8587 112.163 54.768C112.163 53.104 111.715 51.7387 110.819 50.672C109.923 49.6053 108.686 49.072 107.107 49.072L102.243 49.136V61.808Z" fill="#212121"/>
</svg>
