<svg id="Capa_1" data-name="Capa 1" xmlns="http://www.w3.org/2000/svg" viewBox="0 0 1533.15 700.46"><title>LOGOTIPO_BLACK</title><polygon points="928.63 92.47 1157.47 92.47 1157.47 163.64 1043.57 163.64 1043.57 173.24 1157.31 173.24 1157.31 240.92 1043.54 240.92 1043.54 250.49 1157.49 250.49 1157.49 321.85 928.63 321.85 928.63 92.47"/><path d="M881.07,172.31c-.06,45.79-35,79.38-82.89,79.71-10.18.07-20.38,0-32.5,0v71.69H650.82V92.57H670.7c42.56-.09,85.11-.18,127.66,0C846.4,92.8,881.12,126.44,881.07,172.31Z"/><path d="M1409.22,231.91c2.18,31,4.35,61.88,6.6,93.61-32.59-21-64-41.31-95.93-61.91v60.47H1205.05V92.82h22.75v.09q62.4-.16,124.8,0c48,.22,82.74,33.85,82.69,79.71C1435.27,196.85,1425.51,217.64,1409.22,231.91Z"/><path d="M603.08,216.77a115.14,115.14,0,0,1-114.8,109.1c-62.39.28-112.87-47.76-116.08-109.1-.11-2.05-.16-4.1-.16-6.18V92.47H603.6Z"/><path d="M324.45,240.34c-.15,51.22-33.38,84.35-84.87,84.44-46.45.09-92.9-.07-139.34-.2H93.06v-10.9h0v-9.26c0-42.35-.12-84.7,0-127,.16-49.47,33.31-83.32,82.35-83.66,48.71-.35,97.41-.08,147.82-.08h1.18v17.42Q324.51,175.69,324.45,240.34Z"/><polygon points="881.58 373.33 881.58 602.17 810.4 602.17 810.4 488.27 800.8 488.27 800.8 602.01 733.13 602.01 733.13 488.24 723.56 488.24 723.56 602.19 652.2 602.19 652.2 373.33 881.58 373.33"/><path d="M324.5,373.33V487.52c-.21,63.49-52,114.93-115.74,114.93S93.16,551,93,487.41H202.45V373.33Z"/><path d="M603.08,497.63a115.13,115.13,0,0,1-114.8,109.1C425.89,607,375.41,559,372.2,497.63c-.11-2.05-.16-4.1-.16-6.17V373.33H603.6Z"/><path d="M1159.31,453.24c0,45.79-35,79.38-82.89,79.71-10.18.07-20.38,0-32.49,0v71.69H929.07V373.5h19.87c42.57-.09,85.12-.18,127.66,0C1124.65,373.73,1159.37,407.37,1159.31,453.24Z"/></svg>